<mxfile host="Electron" modified="2023-10-02T15:03:17.280Z" agent="Mozilla/5.0 (Windows NT 10.0; Win64; x64) AppleWebKit/537.36 (KHTML, like Gecko) draw.io/21.7.5 Chrome/114.0.5735.289 Electron/25.8.1 Safari/537.36" etag="zMsJX6rHjJXkaI7MVtIG" version="21.7.5" type="device">
  <diagram id="prtHgNgQTEPvFCAcTncT" name="Page-1">
    <mxGraphModel dx="880" dy="532" grid="1" gridSize="10" guides="1" tooltips="1" connect="1" arrows="1" fold="1" page="1" pageScale="1" pageWidth="827" pageHeight="1169" math="0" shadow="0">
      <root>
        <mxCell id="0" />
        <mxCell id="1" parent="0" />
        <mxCell id="dNxyNK7c78bLwvsdeMH5-19" value="Realizar Saque" style="swimlane;html=1;childLayout=stackLayout;resizeParent=1;resizeParentMax=0;horizontal=0;startSize=20;horizontalStack=0;" parent="1" vertex="1">
          <mxGeometry x="177" y="171" width="2073" height="433.75" as="geometry" />
        </mxCell>
        <mxCell id="dNxyNK7c78bLwvsdeMH5-20" value="Cliente" style="swimlane;html=1;startSize=20;horizontal=0;" parent="dNxyNK7c78bLwvsdeMH5-19" vertex="1">
          <mxGeometry x="20" width="2053" height="120" as="geometry" />
        </mxCell>
        <mxCell id="dNxyNK7c78bLwvsdeMH5-25" value="" style="edgeStyle=orthogonalEdgeStyle;rounded=0;orthogonalLoop=1;jettySize=auto;html=1;" parent="dNxyNK7c78bLwvsdeMH5-20" source="dNxyNK7c78bLwvsdeMH5-23" target="dNxyNK7c78bLwvsdeMH5-24" edge="1">
          <mxGeometry relative="1" as="geometry" />
        </mxCell>
        <mxCell id="dNxyNK7c78bLwvsdeMH5-23" value="" style="ellipse;whiteSpace=wrap;html=1;" parent="dNxyNK7c78bLwvsdeMH5-20" vertex="1">
          <mxGeometry x="40" y="40" width="40" height="40" as="geometry" />
        </mxCell>
        <mxCell id="dNxyNK7c78bLwvsdeMH5-24" value="&lt;font color=&quot;#ffffff&quot;&gt;Informar o número da conta&lt;/font&gt;" style="rounded=0;whiteSpace=wrap;html=1;fontFamily=Helvetica;fontSize=12;fontColor=#000000;align=center;" parent="dNxyNK7c78bLwvsdeMH5-20" vertex="1">
          <mxGeometry x="120" y="30" width="80" height="60" as="geometry" />
        </mxCell>
        <mxCell id="rI-VADwGAChPPz3IXsjr-53" value="&lt;font color=&quot;#ffffff&quot;&gt;Informar a senha&lt;/font&gt;" style="whiteSpace=wrap;html=1;fontColor=#000000;rounded=0;" vertex="1" parent="dNxyNK7c78bLwvsdeMH5-20">
          <mxGeometry x="390" y="30" width="90" height="60" as="geometry" />
        </mxCell>
        <mxCell id="rI-VADwGAChPPz3IXsjr-58" value="&lt;font color=&quot;#ffffff&quot;&gt;Informar o valor a ser retirado&lt;/font&gt;" style="whiteSpace=wrap;html=1;fontColor=#000000;rounded=0;" vertex="1" parent="dNxyNK7c78bLwvsdeMH5-20">
          <mxGeometry x="747" y="30" width="120" height="60" as="geometry" />
        </mxCell>
        <mxCell id="rI-VADwGAChPPz3IXsjr-109" value="" style="ellipse;whiteSpace=wrap;html=1;fontColor=#000000;rounded=0;" vertex="1" parent="dNxyNK7c78bLwvsdeMH5-20">
          <mxGeometry x="1829.25" y="40" width="58.5" height="50" as="geometry" />
        </mxCell>
        <mxCell id="rI-VADwGAChPPz3IXsjr-10" value="" style="edgeStyle=orthogonalEdgeStyle;rounded=0;orthogonalLoop=1;jettySize=auto;html=1;" edge="1" parent="dNxyNK7c78bLwvsdeMH5-19" source="dNxyNK7c78bLwvsdeMH5-24" target="rI-VADwGAChPPz3IXsjr-9">
          <mxGeometry relative="1" as="geometry" />
        </mxCell>
        <mxCell id="rI-VADwGAChPPz3IXsjr-54" value="" style="edgeStyle=orthogonalEdgeStyle;rounded=0;orthogonalLoop=1;jettySize=auto;html=1;" edge="1" parent="dNxyNK7c78bLwvsdeMH5-19" source="rI-VADwGAChPPz3IXsjr-13" target="rI-VADwGAChPPz3IXsjr-53">
          <mxGeometry relative="1" as="geometry">
            <Array as="points">
              <mxPoint x="385" y="60" />
            </Array>
          </mxGeometry>
        </mxCell>
        <mxCell id="rI-VADwGAChPPz3IXsjr-56" value="" style="edgeStyle=orthogonalEdgeStyle;rounded=0;orthogonalLoop=1;jettySize=auto;html=1;" edge="1" parent="dNxyNK7c78bLwvsdeMH5-19" source="rI-VADwGAChPPz3IXsjr-53" target="rI-VADwGAChPPz3IXsjr-25">
          <mxGeometry relative="1" as="geometry">
            <Array as="points">
              <mxPoint x="520" y="60" />
            </Array>
          </mxGeometry>
        </mxCell>
        <mxCell id="rI-VADwGAChPPz3IXsjr-59" value="" style="edgeStyle=orthogonalEdgeStyle;rounded=0;orthogonalLoop=1;jettySize=auto;html=1;" edge="1" parent="dNxyNK7c78bLwvsdeMH5-19" source="rI-VADwGAChPPz3IXsjr-35" target="rI-VADwGAChPPz3IXsjr-58">
          <mxGeometry relative="1" as="geometry">
            <Array as="points">
              <mxPoint x="736" y="60" />
            </Array>
          </mxGeometry>
        </mxCell>
        <mxCell id="rI-VADwGAChPPz3IXsjr-61" value="" style="edgeStyle=orthogonalEdgeStyle;rounded=0;orthogonalLoop=1;jettySize=auto;html=1;" edge="1" parent="dNxyNK7c78bLwvsdeMH5-19" source="rI-VADwGAChPPz3IXsjr-58" target="rI-VADwGAChPPz3IXsjr-60">
          <mxGeometry relative="1" as="geometry">
            <Array as="points">
              <mxPoint x="917" y="60" />
            </Array>
          </mxGeometry>
        </mxCell>
        <mxCell id="dNxyNK7c78bLwvsdeMH5-21" value="Sistema" style="swimlane;html=1;startSize=20;horizontal=0;" parent="dNxyNK7c78bLwvsdeMH5-19" vertex="1">
          <mxGeometry x="20" y="120" width="2053" height="313.75" as="geometry">
            <mxRectangle x="20" y="120" width="430" height="30" as="alternateBounds" />
          </mxGeometry>
        </mxCell>
        <mxCell id="rI-VADwGAChPPz3IXsjr-12" value="" style="edgeStyle=orthogonalEdgeStyle;rounded=0;orthogonalLoop=1;jettySize=auto;html=1;" edge="1" parent="dNxyNK7c78bLwvsdeMH5-21" source="rI-VADwGAChPPz3IXsjr-9" target="rI-VADwGAChPPz3IXsjr-11">
          <mxGeometry relative="1" as="geometry" />
        </mxCell>
        <mxCell id="rI-VADwGAChPPz3IXsjr-9" value="&lt;font color=&quot;#ffffff&quot;&gt;Verificar se conta existe&lt;/font&gt;" style="whiteSpace=wrap;html=1;fontColor=#000000;rounded=0;" vertex="1" parent="dNxyNK7c78bLwvsdeMH5-21">
          <mxGeometry x="120" y="30" width="80" height="50" as="geometry" />
        </mxCell>
        <mxCell id="rI-VADwGAChPPz3IXsjr-24" value="" style="edgeStyle=orthogonalEdgeStyle;rounded=0;orthogonalLoop=1;jettySize=auto;html=1;" edge="1" parent="dNxyNK7c78bLwvsdeMH5-21" source="rI-VADwGAChPPz3IXsjr-11">
          <mxGeometry relative="1" as="geometry">
            <mxPoint x="260" y="120" as="targetPoint" />
          </mxGeometry>
        </mxCell>
        <mxCell id="rI-VADwGAChPPz3IXsjr-52" value="" style="edgeStyle=orthogonalEdgeStyle;rounded=0;orthogonalLoop=1;jettySize=auto;html=1;" edge="1" parent="dNxyNK7c78bLwvsdeMH5-21" source="rI-VADwGAChPPz3IXsjr-11" target="rI-VADwGAChPPz3IXsjr-13">
          <mxGeometry relative="1" as="geometry" />
        </mxCell>
        <mxCell id="rI-VADwGAChPPz3IXsjr-11" value="" style="rhombus;whiteSpace=wrap;html=1;fontColor=#000000;rounded=0;" vertex="1" parent="dNxyNK7c78bLwvsdeMH5-21">
          <mxGeometry x="235" y="31.25" width="50" height="47.5" as="geometry" />
        </mxCell>
        <mxCell id="rI-VADwGAChPPz3IXsjr-23" value="" style="edgeStyle=orthogonalEdgeStyle;rounded=0;orthogonalLoop=1;jettySize=auto;html=1;" edge="1" parent="dNxyNK7c78bLwvsdeMH5-21" source="rI-VADwGAChPPz3IXsjr-17" target="rI-VADwGAChPPz3IXsjr-22">
          <mxGeometry relative="1" as="geometry">
            <Array as="points">
              <mxPoint x="260" y="180" />
              <mxPoint x="260" y="180" />
            </Array>
          </mxGeometry>
        </mxCell>
        <mxCell id="rI-VADwGAChPPz3IXsjr-17" value="&lt;font color=&quot;#ffffff&quot; style=&quot;font-size: 11px;&quot;&gt;Informar o cliente que o número da conta não foi encontrada&lt;/font&gt;" style="whiteSpace=wrap;html=1;fontColor=#000000;rounded=0;" vertex="1" parent="dNxyNK7c78bLwvsdeMH5-21">
          <mxGeometry x="195" y="120" width="130" height="50" as="geometry" />
        </mxCell>
        <mxCell id="rI-VADwGAChPPz3IXsjr-22" value="" style="ellipse;whiteSpace=wrap;html=1;fontColor=#000000;rounded=0;" vertex="1" parent="dNxyNK7c78bLwvsdeMH5-21">
          <mxGeometry x="235" y="200" width="50" height="50" as="geometry" />
        </mxCell>
        <mxCell id="rI-VADwGAChPPz3IXsjr-57" value="" style="edgeStyle=orthogonalEdgeStyle;rounded=0;orthogonalLoop=1;jettySize=auto;html=1;" edge="1" parent="dNxyNK7c78bLwvsdeMH5-21" source="rI-VADwGAChPPz3IXsjr-25" target="rI-VADwGAChPPz3IXsjr-29">
          <mxGeometry relative="1" as="geometry" />
        </mxCell>
        <mxCell id="rI-VADwGAChPPz3IXsjr-25" value="&lt;font color=&quot;#ffffff&quot;&gt;Verificar se a senha está correta&lt;/font&gt;" style="rounded=0;whiteSpace=wrap;html=1;fontColor=#000000;" vertex="1" parent="dNxyNK7c78bLwvsdeMH5-21">
          <mxGeometry x="430" y="29.69" width="120" height="50.31" as="geometry" />
        </mxCell>
        <mxCell id="rI-VADwGAChPPz3IXsjr-32" value="" style="edgeStyle=orthogonalEdgeStyle;rounded=0;orthogonalLoop=1;jettySize=auto;html=1;" edge="1" parent="dNxyNK7c78bLwvsdeMH5-21" source="rI-VADwGAChPPz3IXsjr-29" target="rI-VADwGAChPPz3IXsjr-31">
          <mxGeometry relative="1" as="geometry" />
        </mxCell>
        <mxCell id="rI-VADwGAChPPz3IXsjr-29" value="" style="rhombus;whiteSpace=wrap;html=1;fontColor=#000000;rounded=0;" vertex="1" parent="dNxyNK7c78bLwvsdeMH5-21">
          <mxGeometry x="581.25" y="31.25" width="50" height="45.63" as="geometry" />
        </mxCell>
        <mxCell id="rI-VADwGAChPPz3IXsjr-34" value="" style="edgeStyle=orthogonalEdgeStyle;rounded=0;orthogonalLoop=1;jettySize=auto;html=1;" edge="1" parent="dNxyNK7c78bLwvsdeMH5-21" source="rI-VADwGAChPPz3IXsjr-31" target="rI-VADwGAChPPz3IXsjr-33">
          <mxGeometry relative="1" as="geometry" />
        </mxCell>
        <mxCell id="rI-VADwGAChPPz3IXsjr-31" value="&lt;font color=&quot;#ffffff&quot;&gt;Informar ao cliente que a senha está incorreta&lt;/font&gt;" style="whiteSpace=wrap;html=1;fontColor=#000000;rounded=0;" vertex="1" parent="dNxyNK7c78bLwvsdeMH5-21">
          <mxGeometry x="540" y="119.99" width="132.5" height="50.01" as="geometry" />
        </mxCell>
        <mxCell id="rI-VADwGAChPPz3IXsjr-33" value="" style="ellipse;whiteSpace=wrap;html=1;fontColor=#000000;rounded=0;" vertex="1" parent="dNxyNK7c78bLwvsdeMH5-21">
          <mxGeometry x="582.5" y="200" width="47.5" height="50" as="geometry" />
        </mxCell>
        <mxCell id="rI-VADwGAChPPz3IXsjr-13" value="&lt;font color=&quot;#ffffff&quot;&gt;Solicitar &lt;br&gt;senha&lt;/font&gt;" style="rounded=0;whiteSpace=wrap;html=1;fontColor=#000000;" vertex="1" parent="dNxyNK7c78bLwvsdeMH5-21">
          <mxGeometry x="325" y="30" width="80" height="50" as="geometry" />
        </mxCell>
        <mxCell id="rI-VADwGAChPPz3IXsjr-35" value="&lt;font color=&quot;#ffffff&quot;&gt;Solicitar o valor do saque&lt;/font&gt;" style="rounded=0;whiteSpace=wrap;html=1;fontColor=#000000;" vertex="1" parent="dNxyNK7c78bLwvsdeMH5-21">
          <mxGeometry x="667" y="25" width="97.5" height="60" as="geometry" />
        </mxCell>
        <mxCell id="rI-VADwGAChPPz3IXsjr-36" value="" style="edgeStyle=orthogonalEdgeStyle;rounded=0;orthogonalLoop=1;jettySize=auto;html=1;" edge="1" parent="dNxyNK7c78bLwvsdeMH5-21" source="rI-VADwGAChPPz3IXsjr-29" target="rI-VADwGAChPPz3IXsjr-35">
          <mxGeometry relative="1" as="geometry" />
        </mxCell>
        <mxCell id="rI-VADwGAChPPz3IXsjr-77" value="" style="edgeStyle=orthogonalEdgeStyle;rounded=0;orthogonalLoop=1;jettySize=auto;html=1;" edge="1" parent="dNxyNK7c78bLwvsdeMH5-21" source="rI-VADwGAChPPz3IXsjr-60" target="rI-VADwGAChPPz3IXsjr-76">
          <mxGeometry relative="1" as="geometry">
            <Array as="points">
              <mxPoint x="894" y="113" />
              <mxPoint x="894" y="157" />
            </Array>
          </mxGeometry>
        </mxCell>
        <mxCell id="rI-VADwGAChPPz3IXsjr-60" value="&lt;font color=&quot;#ffffff&quot;&gt;Verificar o tipo da conta&lt;/font&gt;" style="whiteSpace=wrap;html=1;fontColor=#000000;rounded=0;" vertex="1" parent="dNxyNK7c78bLwvsdeMH5-21">
          <mxGeometry x="850" y="25" width="83" height="60" as="geometry" />
        </mxCell>
        <mxCell id="rI-VADwGAChPPz3IXsjr-99" value="" style="edgeStyle=orthogonalEdgeStyle;rounded=0;orthogonalLoop=1;jettySize=auto;html=1;" edge="1" parent="dNxyNK7c78bLwvsdeMH5-21" source="rI-VADwGAChPPz3IXsjr-69" target="rI-VADwGAChPPz3IXsjr-98">
          <mxGeometry relative="1" as="geometry" />
        </mxCell>
        <mxCell id="rI-VADwGAChPPz3IXsjr-69" value="&lt;font color=&quot;#ffffff&quot;&gt;Validar o saldo na conta especial&lt;/font&gt;" style="rounded=0;whiteSpace=wrap;html=1;fontColor=#000000;" vertex="1" parent="dNxyNK7c78bLwvsdeMH5-21">
          <mxGeometry x="1003" y="209" width="90" height="70" as="geometry" />
        </mxCell>
        <mxCell id="rI-VADwGAChPPz3IXsjr-90" value="" style="edgeStyle=orthogonalEdgeStyle;rounded=0;orthogonalLoop=1;jettySize=auto;html=1;" edge="1" parent="dNxyNK7c78bLwvsdeMH5-21" source="rI-VADwGAChPPz3IXsjr-74" target="rI-VADwGAChPPz3IXsjr-83">
          <mxGeometry relative="1" as="geometry" />
        </mxCell>
        <mxCell id="rI-VADwGAChPPz3IXsjr-97" value="" style="edgeStyle=orthogonalEdgeStyle;rounded=0;orthogonalLoop=1;jettySize=auto;html=1;" edge="1" parent="dNxyNK7c78bLwvsdeMH5-21" source="rI-VADwGAChPPz3IXsjr-74" target="rI-VADwGAChPPz3IXsjr-96">
          <mxGeometry relative="1" as="geometry" />
        </mxCell>
        <mxCell id="rI-VADwGAChPPz3IXsjr-74" value="&lt;font color=&quot;#ffffff&quot;&gt;Validar o saldo na conta comum ou poupança&lt;br&gt;&lt;/font&gt;" style="whiteSpace=wrap;html=1;fontColor=#000000;rounded=0;" vertex="1" parent="dNxyNK7c78bLwvsdeMH5-21">
          <mxGeometry x="1003" y="49.99" width="90" height="70" as="geometry" />
        </mxCell>
        <mxCell id="rI-VADwGAChPPz3IXsjr-80" value="" style="edgeStyle=orthogonalEdgeStyle;rounded=0;orthogonalLoop=1;jettySize=auto;html=1;exitX=0.5;exitY=0;exitDx=0;exitDy=0;entryX=-0.005;entryY=0.461;entryDx=0;entryDy=0;entryPerimeter=0;" edge="1" parent="dNxyNK7c78bLwvsdeMH5-21" source="rI-VADwGAChPPz3IXsjr-76" target="rI-VADwGAChPPz3IXsjr-74">
          <mxGeometry relative="1" as="geometry">
            <mxPoint x="889.7666666666667" y="155.01598173515993" as="sourcePoint" />
            <mxPoint x="830" y="100" as="targetPoint" />
          </mxGeometry>
        </mxCell>
        <mxCell id="rI-VADwGAChPPz3IXsjr-81" value="" style="edgeStyle=orthogonalEdgeStyle;rounded=0;orthogonalLoop=1;jettySize=auto;html=1;" edge="1" parent="dNxyNK7c78bLwvsdeMH5-21" source="rI-VADwGAChPPz3IXsjr-76" target="rI-VADwGAChPPz3IXsjr-69">
          <mxGeometry relative="1" as="geometry">
            <Array as="points">
              <mxPoint x="951" y="249" />
            </Array>
          </mxGeometry>
        </mxCell>
        <mxCell id="rI-VADwGAChPPz3IXsjr-76" value="" style="rhombus;whiteSpace=wrap;html=1;fontColor=#000000;rounded=0;" vertex="1" parent="dNxyNK7c78bLwvsdeMH5-21">
          <mxGeometry x="933" y="140" width="36.5" height="35" as="geometry" />
        </mxCell>
        <mxCell id="rI-VADwGAChPPz3IXsjr-91" value="" style="edgeStyle=orthogonalEdgeStyle;rounded=0;orthogonalLoop=1;jettySize=auto;html=1;" edge="1" parent="dNxyNK7c78bLwvsdeMH5-21" source="rI-VADwGAChPPz3IXsjr-83" target="rI-VADwGAChPPz3IXsjr-69">
          <mxGeometry relative="1" as="geometry" />
        </mxCell>
        <mxCell id="rI-VADwGAChPPz3IXsjr-93" value="" style="edgeStyle=orthogonalEdgeStyle;rounded=0;orthogonalLoop=1;jettySize=auto;html=1;" edge="1" parent="dNxyNK7c78bLwvsdeMH5-21" source="rI-VADwGAChPPz3IXsjr-83" target="rI-VADwGAChPPz3IXsjr-92">
          <mxGeometry relative="1" as="geometry" />
        </mxCell>
        <mxCell id="rI-VADwGAChPPz3IXsjr-83" value="" style="rhombus;whiteSpace=wrap;html=1;fontColor=#000000;rounded=0;" vertex="1" parent="dNxyNK7c78bLwvsdeMH5-21">
          <mxGeometry x="1028" y="149" width="40" height="35" as="geometry" />
        </mxCell>
        <mxCell id="rI-VADwGAChPPz3IXsjr-101" value="" style="edgeStyle=orthogonalEdgeStyle;rounded=0;orthogonalLoop=1;jettySize=auto;html=1;" edge="1" parent="dNxyNK7c78bLwvsdeMH5-21" source="rI-VADwGAChPPz3IXsjr-92" target="rI-VADwGAChPPz3IXsjr-100">
          <mxGeometry relative="1" as="geometry" />
        </mxCell>
        <mxCell id="rI-VADwGAChPPz3IXsjr-92" value="&lt;font style=&quot;font-size: 11px;&quot; color=&quot;#ffffff&quot;&gt;Emitir uma mensagem informando que o saque é insuficiente e recusar o pedido&lt;/font&gt;" style="rounded=0;whiteSpace=wrap;html=1;fontColor=#000000;" vertex="1" parent="dNxyNK7c78bLwvsdeMH5-21">
          <mxGeometry x="1108" y="136.5" width="162" height="60" as="geometry" />
        </mxCell>
        <mxCell id="rI-VADwGAChPPz3IXsjr-103" value="" style="edgeStyle=orthogonalEdgeStyle;rounded=0;orthogonalLoop=1;jettySize=auto;html=1;" edge="1" parent="dNxyNK7c78bLwvsdeMH5-21" source="rI-VADwGAChPPz3IXsjr-96" target="rI-VADwGAChPPz3IXsjr-102">
          <mxGeometry relative="1" as="geometry" />
        </mxCell>
        <mxCell id="rI-VADwGAChPPz3IXsjr-96" value="&lt;font color=&quot;#ffffff&quot;&gt;Diminuir o valor a sacar do saldo na conta&lt;/font&gt;" style="whiteSpace=wrap;html=1;fontColor=#000000;rounded=0;" vertex="1" parent="dNxyNK7c78bLwvsdeMH5-21">
          <mxGeometry x="1303" y="54.99000000000001" width="120" height="60" as="geometry" />
        </mxCell>
        <mxCell id="rI-VADwGAChPPz3IXsjr-104" value="" style="edgeStyle=orthogonalEdgeStyle;rounded=0;orthogonalLoop=1;jettySize=auto;html=1;" edge="1" parent="dNxyNK7c78bLwvsdeMH5-21" source="rI-VADwGAChPPz3IXsjr-98" target="rI-VADwGAChPPz3IXsjr-102">
          <mxGeometry relative="1" as="geometry" />
        </mxCell>
        <mxCell id="rI-VADwGAChPPz3IXsjr-98" value="&lt;font color=&quot;#ffffff&quot;&gt;Diminuir o valor a sacar do saldo na conta&lt;/font&gt;" style="rounded=0;whiteSpace=wrap;html=1;fontColor=#000000;" vertex="1" parent="dNxyNK7c78bLwvsdeMH5-21">
          <mxGeometry x="1303" y="214" width="120" height="60" as="geometry" />
        </mxCell>
        <mxCell id="rI-VADwGAChPPz3IXsjr-100" value="" style="ellipse;whiteSpace=wrap;html=1;fontColor=#000000;rounded=0;" vertex="1" parent="dNxyNK7c78bLwvsdeMH5-21">
          <mxGeometry x="1323" y="144.75" width="47" height="43.5" as="geometry" />
        </mxCell>
        <mxCell id="rI-VADwGAChPPz3IXsjr-106" value="" style="edgeStyle=orthogonalEdgeStyle;rounded=0;orthogonalLoop=1;jettySize=auto;html=1;" edge="1" parent="dNxyNK7c78bLwvsdeMH5-21" source="rI-VADwGAChPPz3IXsjr-102" target="rI-VADwGAChPPz3IXsjr-105">
          <mxGeometry relative="1" as="geometry" />
        </mxCell>
        <mxCell id="rI-VADwGAChPPz3IXsjr-102" value="" style="rhombus;whiteSpace=wrap;html=1;fontColor=#000000;rounded=0;" vertex="1" parent="dNxyNK7c78bLwvsdeMH5-21">
          <mxGeometry x="1493" y="139.75" width="57" height="53.5" as="geometry" />
        </mxCell>
        <mxCell id="rI-VADwGAChPPz3IXsjr-108" value="" style="edgeStyle=orthogonalEdgeStyle;rounded=0;orthogonalLoop=1;jettySize=auto;html=1;" edge="1" parent="dNxyNK7c78bLwvsdeMH5-21" source="rI-VADwGAChPPz3IXsjr-105" target="rI-VADwGAChPPz3IXsjr-107">
          <mxGeometry relative="1" as="geometry" />
        </mxCell>
        <mxCell id="rI-VADwGAChPPz3IXsjr-105" value="&lt;font color=&quot;#ffffff&quot;&gt;Entregar importância solicitada ao cliente&lt;/font&gt;" style="whiteSpace=wrap;html=1;fontColor=#000000;rounded=0;" vertex="1" parent="dNxyNK7c78bLwvsdeMH5-21">
          <mxGeometry x="1598.5" y="136.5" width="120" height="60" as="geometry" />
        </mxCell>
        <mxCell id="rI-VADwGAChPPz3IXsjr-107" value="&lt;font color=&quot;#ffffff&quot;&gt;Executar o caso de uso &quot;Registrar Movimento&quot;&lt;/font&gt;" style="whiteSpace=wrap;html=1;fontColor=#000000;rounded=0;" vertex="1" parent="dNxyNK7c78bLwvsdeMH5-21">
          <mxGeometry x="1798.5" y="136.5" width="120" height="60" as="geometry" />
        </mxCell>
        <mxCell id="rI-VADwGAChPPz3IXsjr-110" value="" style="edgeStyle=orthogonalEdgeStyle;rounded=0;orthogonalLoop=1;jettySize=auto;html=1;" edge="1" parent="dNxyNK7c78bLwvsdeMH5-19" source="rI-VADwGAChPPz3IXsjr-107" target="rI-VADwGAChPPz3IXsjr-109">
          <mxGeometry relative="1" as="geometry" />
        </mxCell>
      </root>
    </mxGraphModel>
  </diagram>
</mxfile>
